<?xml version="1.0" standalone="no"?>
<!DOCTYPE svg PUBLIC "-//W3C//DTD SVG 20010904//EN"
 "http://www.w3.org/TR/2001/REC-SVG-20010904/DTD/svg10.dtd">
<svg version="1.0" xmlns="http://www.w3.org/2000/svg"
 width="512.000000pt" height="512.000000pt" viewBox="0 0 512.000000 512.000000"
 preserveAspectRatio="xMidYMid meet">

<g transform="translate(0.000000,512.000000) scale(0.100000,-0.100000)"
fill="#ffffff" stroke="none">
<path d="M0 2560 l0 -2560 2560 0 2560 0 0 2560 0 2560 -2560 0 -2560 0 0
-2560z m2255 1436 c204 -91 593 -264 865 -385 l495 -220 3 -198 2 -198 -174
-77 c-95 -43 -179 -78 -186 -78 -11 0 -394 169 -992 439 l-178 79 0 -177 0
-178 98 -42 c53 -23 397 -175 765 -338 l667 -296 -2 -296 -3 -295 -95 -42
c-52 -23 -445 -198 -873 -388 l-778 -347 -77 34 c-42 19 -122 55 -177 79
l-100 44 0 469 0 468 144 64 c79 35 149 63 156 63 6 0 74 -28 150 -63 l140
-64 3 -151 c1 -84 6 -152 10 -152 4 0 160 67 347 149 l339 150 -84 39 c-47 21
-338 150 -647 288 l-563 249 0 685 0 685 183 82 c100 45 184 82 187 82 3 1
172 -73 375 -163z"/>
</g>
</svg>
